<?xml version="1.0" encoding="UTF-8"?>
<svg width="700pt" height="700pt" version="1.1" viewBox="0 0 700 700" xmlns="http://www.w3.org/2000/svg" xmlns:xlink="http://www.w3.org/1999/xlink">
 <defs>
  <symbol id="l" overflow="visible">
   <path d="m29.312-1.75c-1.5117 0.78125-3.0898 1.3711-4.7344 1.7656-1.6367 0.40625-3.3398 0.60938-5.1094 0.60938-5.3125 0-9.5273-1.4844-12.641-4.4531-3.1055-2.9688-4.6562-7-4.6562-12.094s1.5508-9.125 4.6562-12.094c3.1133-2.9688 7.3281-4.4531 12.641-4.4531 1.7695 0 3.4727 0.19922 5.1094 0.59375 1.6445 0.39844 3.2227 0.99219 4.7344 1.7812v6.5938c-1.5312-1.0391-3.0391-1.8008-4.5156-2.2812-1.4805-0.48828-3.0391-0.73438-4.6719-0.73438-2.9375 0-5.2461 0.94531-6.9219 2.8281-1.6797 1.875-2.5156 4.4648-2.5156 7.7656 0 3.293 0.83594 5.8828 2.5156 7.7656 1.6758 1.875 3.9844 2.8125 6.9219 2.8125 1.6328 0 3.1914-0.23828 4.6719-0.71875 1.4766-0.48828 2.9844-1.2539 4.5156-2.2969z"/>
  </symbol>
  <symbol id="i" overflow="visible">
   <path d="m21.453-17.406c-0.67969-0.3125-1.3516-0.53906-2.0156-0.6875-0.65625-0.15625-1.3203-0.23438-1.9844-0.23438-1.9688 0-3.4844 0.63281-4.5469 1.8906-1.0547 1.2617-1.5781 3.0703-1.5781 5.4219v11.016h-7.6562v-23.922h7.6562v3.9219c0.97656-1.5625 2.1016-2.7031 3.375-3.4219 1.2812-0.71875 2.8125-1.0781 4.5938-1.0781 0.25 0 0.52344 0.011719 0.82812 0.03125 0.30078 0.023438 0.73438 0.070312 1.2969 0.14062z"/>
  </symbol>
  <symbol id="a" overflow="visible">
   <path d="m27.562-12.031v2.1875h-17.891c0.1875 1.793 0.83203 3.1367 1.9375 4.0312 1.1133 0.89844 2.6719 1.3438 4.6719 1.3438 1.6016 0 3.25-0.23438 4.9375-0.70312 1.6875-0.47656 3.4219-1.2031 5.2031-2.1719v5.8906c-1.8047 0.6875-3.6094 1.2031-5.4219 1.5469-1.8125 0.35156-3.6211 0.53125-5.4219 0.53125-4.3359 0-7.7031-1.0977-10.109-3.2969-2.3984-2.207-3.5938-5.2969-3.5938-9.2656 0-3.9062 1.1758-6.9727 3.5312-9.2031 2.3633-2.2383 5.6094-3.3594 9.7344-3.3594 3.7578 0 6.7695 1.1367 9.0312 3.4062 2.2578 2.2617 3.3906 5.2812 3.3906 9.0625zm-7.8594-2.5312c0-1.457-0.42969-2.6289-1.2812-3.5156-0.84375-0.89453-1.9492-1.3438-3.3125-1.3438-1.4922 0-2.6992 0.41797-3.625 1.25-0.91797 0.83594-1.4922 2.0391-1.7188 3.6094z"/>
  </symbol>
  <symbol id="h" overflow="visible">
   <path d="m14.391-10.766c-1.5938 0-2.793 0.27344-3.5938 0.8125-0.80469 0.54297-1.2031 1.3398-1.2031 2.3906 0 0.96875 0.32031 1.7305 0.96875 2.2812 0.64453 0.54297 1.5469 0.8125 2.7031 0.8125 1.4375 0 2.6445-0.51562 3.625-1.5469 0.98828-1.0312 1.4844-2.3203 1.4844-3.875v-0.875zm11.688-2.8906v13.656h-7.7031v-3.5469c-1.0312 1.4492-2.1875 2.5078-3.4688 3.1719s-2.8398 1-4.6719 1c-2.4805 0-4.4961-0.72266-6.0469-2.1719-1.543-1.4453-2.3125-3.3203-2.3125-5.625 0-2.8125 0.96094-4.8672 2.8906-6.1719 1.9375-1.3125 4.9688-1.9688 9.0938-1.9688h4.5156v-0.60938c0-1.207-0.48047-2.0938-1.4375-2.6562-0.94922-0.5625-2.4375-0.84375-4.4688-0.84375-1.6367 0-3.1562 0.16797-4.5625 0.5-1.4062 0.32422-2.7188 0.8125-3.9375 1.4688v-5.8281c1.6445-0.40625 3.2891-0.70703 4.9375-0.90625 1.6562-0.20703 3.3047-0.3125 4.9531-0.3125 4.3203 0 7.4375 0.85547 9.3438 2.5625 1.9141 1.6992 2.875 4.4609 2.875 8.2812z"/>
  </symbol>
  <symbol id="b" overflow="visible">
   <path d="m12.031-30.719v6.7969h7.875v5.4688h-7.875v10.141c0 1.1172 0.21875 1.8711 0.65625 2.2656 0.4375 0.38672 1.3125 0.57812 2.625 0.57812h3.9375v5.4688h-6.5625c-3.0234 0-5.1641-0.62891-6.4219-1.8906-1.2617-1.2578-1.8906-3.3984-1.8906-6.4219v-10.141h-3.7969v-5.4688h3.7969v-6.7969z"/>
  </symbol>
  <symbol id="g" overflow="visible">
   <path d="m19.953-20.422v-12.812h7.6875v33.234h-7.6875v-3.4531c-1.0547 1.4062-2.2148 2.4375-3.4844 3.0938-1.2734 0.65625-2.7422 0.98438-4.4062 0.98438-2.9492 0-5.3711-1.1719-7.2656-3.5156-1.8867-2.3438-2.8281-5.3594-2.8281-9.0469s0.94141-6.7031 2.8281-9.0469c1.8945-2.3438 4.3164-3.5156 7.2656-3.5156 1.6562 0 3.1172 0.33594 4.3906 1 1.2812 0.65625 2.4453 1.6836 3.5 3.0781zm-5.0469 15.484c1.6445 0 2.8945-0.59766 3.75-1.7969 0.86328-1.1953 1.2969-2.9297 1.2969-5.2031 0-2.2812-0.43359-4.0195-1.2969-5.2188-0.85547-1.1953-2.1055-1.7969-3.75-1.7969-1.625 0-2.8711 0.60156-3.7344 1.7969-0.85547 1.1992-1.2812 2.9375-1.2812 5.2188 0 2.2734 0.42578 4.0078 1.2812 5.2031 0.86328 1.1992 2.1094 1.7969 3.7344 1.7969z"/>
  </symbol>
  <symbol id="f" overflow="visible">
   <path d="m16.406-4.9375c1.6328 0 2.8828-0.59766 3.75-1.7969 0.86328-1.1953 1.2969-2.9297 1.2969-5.2031 0-2.2812-0.43359-4.0195-1.2969-5.2188-0.86719-1.1953-2.1172-1.7969-3.75-1.7969-1.6367 0-2.8906 0.60547-3.7656 1.8125-0.875 1.1992-1.3125 2.9336-1.3125 5.2031 0 2.2617 0.4375 3.9961 1.3125 5.2031 0.875 1.1992 2.1289 1.7969 3.7656 1.7969zm-5.0781-15.484c1.0508-1.3945 2.2188-2.4219 3.5-3.0781 1.2812-0.66406 2.7539-1 4.4219-1 2.9453 0 5.3672 1.1719 7.2656 3.5156 1.8945 2.3438 2.8438 5.3594 2.8438 9.0469s-0.94922 6.7031-2.8438 9.0469c-1.8984 2.3438-4.3203 3.5156-7.2656 3.5156-1.668 0-3.1406-0.33594-4.4219-1s-2.4492-1.6914-3.5-3.0781v3.4531h-7.6562v-33.234h7.6562z"/>
  </symbol>
  <symbol id="e" overflow="visible">
   <path d="m0.53125-23.922h7.6562l6.4219 16.234 5.4688-16.234h7.6562l-10.062 26.188c-1.0117 2.6641-2.1953 4.5234-3.5469 5.5781-1.3438 1.0625-3.1211 1.5938-5.3281 1.5938h-4.4219v-5.0156h2.3906c1.3008 0 2.2422-0.21094 2.8281-0.625 0.59375-0.40625 1.0547-1.1484 1.3906-2.2188l0.20312-0.65625z"/>
  </symbol>
  <symbol id="d" overflow="visible">
   <path d="m26.219-30.891v6.75c-1.7617-0.78125-3.4766-1.3672-5.1406-1.7656-1.668-0.40625-3.2422-0.60938-4.7188-0.60938-1.9609 0-3.4141 0.27344-4.3594 0.8125-0.9375 0.54297-1.4062 1.3867-1.4062 2.5312 0 0.85547 0.31641 1.5234 0.95312 2 0.63281 0.46875 1.7852 0.875 3.4531 1.2188l3.5 0.70312c3.5391 0.71875 6.0625 1.8047 7.5625 3.25 1.5 1.4492 2.25 3.5117 2.25 6.1875 0 3.5234-1.0469 6.1406-3.1406 7.8594-2.0859 1.7188-5.2734 2.5781-9.5625 2.5781-2.0234 0-4.0547-0.19531-6.0938-0.57812-2.0312-0.38281-4.0625-0.95703-6.0938-1.7188v-6.9375c2.0312 1.0859 3.9922 1.9023 5.8906 2.4531 1.9062 0.54297 3.7422 0.8125 5.5156 0.8125 1.7891 0 3.1602-0.29688 4.1094-0.89062 0.95703-0.60156 1.4375-1.457 1.4375-2.5625 0-1-0.32422-1.7695-0.96875-2.3125-0.64844-0.53906-1.9375-1.0234-3.875-1.4531l-3.1875-0.70312c-3.1875-0.6875-5.5234-1.7734-7-3.2656-1.4688-1.5-2.2031-3.5156-2.2031-6.0469 0-3.1758 1.0234-5.6172 3.0781-7.3281 2.0508-1.707 5-2.5625 8.8438-2.5625 1.75 0 3.5508 0.13281 5.4062 0.39062 1.8516 0.26172 3.7695 0.65625 5.75 1.1875z"/>
  </symbol>
  <symbol id="k" overflow="visible">
   <path d="m3.6719-33.234h7.6562v33.234h-7.6562z"/>
  </symbol>
  <symbol id="c" overflow="visible">
   <path d="m15.062-19.031c-1.6992 0-2.9961 0.60938-3.8906 1.8281-0.88672 1.2188-1.3281 2.9766-1.3281 5.2656 0 2.293 0.44141 4.0469 1.3281 5.2656 0.89453 1.2188 2.1914 1.8281 3.8906 1.8281 1.6641 0 2.9375-0.60938 3.8125-1.8281 0.88281-1.2188 1.3281-2.9727 1.3281-5.2656 0-2.2891-0.44531-4.0469-1.3281-5.2656-0.875-1.2188-2.1484-1.8281-3.8125-1.8281zm0-5.4688c4.1133 0 7.3281 1.1094 9.6406 3.3281s3.4688 5.2969 3.4688 9.2344c0 3.9297-1.1562 7.0078-3.4688 9.2344-2.3125 2.2188-5.5273 3.3281-9.6406 3.3281-4.1367 0-7.3711-1.1094-9.7031-3.3281-2.3242-2.2266-3.4844-5.3047-3.4844-9.2344 0-3.9375 1.1602-7.0156 3.4844-9.2344 2.332-2.2188 5.5664-3.3281 9.7031-3.3281z"/>
  </symbol>
  <symbol id="j" overflow="visible">
   <path d="m4.0156-31.891h8.2188v25.672h14.453v6.2188h-22.672z"/>
  </symbol>
 </defs>
 <g>
  <path d="m337.14 149.23c21.68-3.0391 43.527 4.2852 58.992 19.777 5.5508 4.8438 22.543 25.273 28.707 26.258 13.207 3.3008 25.777 8.7734 37.195 16.191 16.203-9.0039 69.418-20.547 96.359-7.3516 20.281-57.871-26.5-95.977-72.383-105.81-58.5-94.535-159.38-53.84-148.87 50.938z"/>
  <path d="m153.53 210.93c12.734 19.395 39.684 33.184 59.691 38.945h-0.003906c2.7109-11.852 8.543-22.758 16.895-31.594 10.375-12.348 40.422-25.629 53.125-35.445 10.191-9.9297 23.266-24.25 36.758-28.969-3.6875-17.348 1.3945-73.152 22.668-95.047-49.25-37.137-99.156-4.5547-123.05 36.23-15.34 3.9883-30.02 10.18-43.586 18.379-32.891 19.496-44.867 66.09-22.492 97.5z"/>
  <path d="m237.46 440.59c15.734-8.9883 29.32-21.293 39.82-36.059-12.625-5.8477-23.168-15.406-30.219-27.402-7.0547-11.992-10.281-25.852-9.2539-39.727 1.543-6.8711 0.14453-14.074-3.8516-19.867-13.477-13.184-21.48-30.973-22.402-49.801-17.375-4.7617-33.785-12.523-48.488-22.934-10.008-6.875-18.57-15.645-25.207-25.816-9.75 6.5742-17.836 15.324-23.629 25.555-22.418 35.375 0.64062 81.277 20.043 102.75-0.89844 15.867 0.45703 31.777 4.0234 47.262 9.3008 42.738 60.871 68.223 99.164 46.039z"/>
  <path d="m468.43 437.26c-3.7227-17.863-11.277-34.703-22.145-49.359-10.84 11.277-25.156 18.586-40.648 20.742-15.492 2.1602-31.262-0.95312-44.773-8.8398-5.6055-2.5234-12.098-2.0977-17.328 1.1367-14.562 9.043-31.969 12.352-48.836 9.2773-9.6406 14.277-21.625 26.824-35.445 37.109-9.625 7.4258-20.59 12.922-32.297 16.191 3.2305 11.23 9.0117 21.566 16.891 30.195 27.129 32.387 77.082 24.723 103.98 12.688 16.379 6.5586 33.75 10.289 51.375 11.031 41.488 1.125 77.977-38.938 69.23-80.172z"/>
  <path d="m586.41 250.66c-22.016-41.789-74.223-40.41-110.98-25.816v-0.003906c8.4414 11.098 13.355 24.469 14.102 38.391 0.75 13.918-2.6992 27.742-9.8984 39.68l-10.414 17.066c-3.7812 4.9688-2.8359 18.57-3.5898 24.418-0.67969 10.105-3.5781 19.938-8.4922 28.793 14.434 17.77 32.371 53.305 29.758 80.957 61.578 1.0391 82.977-54.656 78.242-101.61 24.309-29.766 40.742-66.812 21.27-101.87z"/>
  <path d="m261.61 367.16c4.5742 8.0547 11.188 14.762 19.18 19.445 7.9883 4.6875 17.07 7.1875 26.332 7.2461 9.6367-0.007812 19.07-2.7383 27.219-7.875 10.344-6.2812 23.125-7.0352 34.137-2.0156 13.059 7.9062 28.902 9.7656 43.438 5.1016 14.535-4.668 26.336-15.402 32.355-29.434 7.1523-14.668 1.0117-34.621 9.9766-48.75 8.6055-13.73 20.227-30.684 17.766-47.613v0.003906c-0.75781-10.262-4.5352-20.066-10.859-28.18-6.3242-8.1172-14.91-14.176-24.672-17.418-9.5781-3.3438-24.492-6.8047-31.422-14.617-9.5469-8.5547-25.297-28.996-37.898-32.82-9.4141-4.0273-19.809-5.1836-29.883-3.332-10.07 1.8516-19.375 6.6328-26.742 13.746l-15.141 14.703c-3.6797 4.6367-35.676 21.836-40.961 25.469-31.766 19.551-33.148 60.336-7 85.594 15.383 17.02 1.6719 42.617 14.176 60.746zm40.523-135.48c39.008-39.324 115.85-14.168 115.88 43.586-0.66016 17.258-8.1328 33.551-20.781 45.312-12.645 11.762-29.438 18.031-46.695 17.438-57.977 0.52734-90.172-66.461-48.402-106.34z"/>
  <path d="m350.54 320.5c12.613 0.58203 24.949-3.8477 34.309-12.324 9.3633-8.4766 14.992-20.312 15.664-32.922-2.2578-59.812-97.59-59.883-99.863 0 0.66406 12.598 6.2812 24.422 15.625 32.898s21.66 12.914 34.266 12.348zm28.094-60.391v0.003907c4.7891 0.058593 8.6367 3.9609 8.6367 8.75 0 4.7891-3.8477 8.6914-8.6367 8.7539-4.7891-0.0625-8.6406-3.9648-8.6406-8.7539 0-4.7891 3.8516-8.6914 8.6406-8.75zm-2.625 33.258-0.003906 0.003906c-0.070312 4.7812-3.9688 8.6172-8.75 8.6172s-8.6797-3.8359-8.7539-8.6211c0.074219-4.7812 3.9727-8.6172 8.7539-8.6172s8.6797 3.8359 8.75 8.6211zm-21.883-50.762c4.7852 0.070313 8.625 3.9688 8.625 8.7539 0 4.7852-3.8398 8.6836-8.625 8.7539-4.7852-0.070313-8.625-3.9688-8.625-8.7539 0-4.7852 3.8398-8.6836 8.625-8.7539zm-14.266 50.762v0.003906c-0.074219 4.7812-3.9688 8.6172-8.7539 8.6172-4.7812 0-8.6797-3.8359-8.75-8.6172 0.070312-4.7852 3.9688-8.6211 8.75-8.6211 4.7852 0 8.6797 3.8359 8.7539 8.6211zm-12.34-39.734v0.003906c4.7812 0.070313 8.6211 3.9688 8.6211 8.75s-3.8398 8.6797-8.6211 8.7539c-4.7852-0.070312-8.6289-3.9688-8.6289-8.7539s3.8438-8.6836 8.6289-8.75z"/>
 </g>
</svg>
