<?xml version="1.0" encoding="UTF-8"?>
<svg version="1.1" viewBox="50 50 600 500" xmlns="http://www.w3.org/2000/svg">
 <g>
  <path d="m298.38 238.88c3.4648-0.074219 6.7734-1.4492 9.2734-3.8516 11.215-11.25 26.465-17.555 42.352-17.5 7.25 0 13.125-5.875 13.125-13.125 0-7.2461-5.875-13.125-13.125-13.125-22.855-0.085938-44.789 8.9922-60.898 25.203-5.1211 5.1211-5.1211 13.426 0 18.547 2.5 2.4023 5.8086 3.7773 9.2734 3.8516z"/>
  <path d="m290.15 277.38c0-7.25-5.875-13.125-13.125-13.125-7.2461 0-13.125 5.875-13.125 13.125-0.066407 22.852 9.0078 44.777 25.203 60.898 5.1211 5.1211 13.426 5.1211 18.547 0 5.1211-5.1211 5.1211-13.426 0-18.547-11.25-11.215-17.555-26.465-17.5-42.352z"/>
  <path d="m392.35 319.73c-11.258 11.188-26.48 17.477-42.352 17.5-7.25 0-13.125 5.875-13.125 13.125 0 7.2461 5.875 13.125 13.125 13.125 22.855 0.085938 44.789-8.9922 60.898-25.203 5.1211-5.1211 5.1211-13.426 0-18.547-2.4375-2.5039-5.7812-3.9141-9.2734-3.9141s-6.8359 1.4102-9.2734 3.9141z"/>
  <path d="m410.9 216.48c-2.4375-2.5039-5.7812-3.9141-9.2734-3.9141s-6.8359 1.4102-9.2734 3.9141c-5.1211 5.1211-5.1211 13.426 0 18.547 11.32 11.172 17.633 26.449 17.5 42.352 0 7.25 5.875 13.125 13.125 13.125 7.2461 0 13.125-5.875 13.125-13.125 0.085938-22.855-8.9922-44.789-25.203-60.898z"/>
  <path d="m544.77 214.02c30.102-43.574 27.648-86.102-7-111.3l-79.797-57.922c-35-25.199-75.773-14.352-107.98 27.648-32.199-42-73.324-52.5-107.98-27.648l-79.797 57.926c-35 25.199-37.102 67.727-7 111.3-50.051 17.5-72.977 52.5-59.676 94.148l30.449 94.324c4.3125 14.293 13.336 26.707 25.602 35.223 12.266 8.5156 27.047 12.629 41.949 11.676 12.238-0.23438 24.383-2.2383 36.051-5.9492 1.2266 52.5 28.176 85.926 71.051 85.926h98.699c42.875 0 70-32.898 71.051-85.926h-0.003906c11.668 3.7109 23.812 5.7148 36.051 5.9492 14.906 0.98828 29.707-3.1172 41.977-11.637s21.289-20.953 25.574-35.262l30.449-93.801c13.301-41.301-9.4492-77-59.676-94.676zm-194.77 168.18c-27.848 0-54.555-11.062-74.246-30.754-19.691-19.691-30.754-46.398-30.754-74.246 0-27.848 11.062-54.555 30.754-74.246s46.398-30.754 74.246-30.754 54.555 11.062 74.246 30.754 30.754 46.398 30.754 74.246c0 27.848-11.062 54.555-30.754 74.246-19.691 19.691-46.398 30.754-74.246 30.754zm18.727-291.2c14-19.25 42-48.125 73.852-25.023l79.801 58.102c31.676 22.926 12.949 58.625-0.875 77.875-7.5234 10.324-30.273 13.824-58.449 9.4492l-0.003907-0.003906c-18.488-31.695-49.391-54.223-85.227-62.125-12.949-25.375-16.625-47.949-9.0977-58.273zm-191.1 33.074 79.801-58.102c31.852-23.102 59.852 5.7734 73.852 25.023 7.5234 10.324 3.8516 32.898-8.9258 58.273v0.003907c-35.93 7.7969-66.922 30.344-85.402 62.125-28.176 4.375-50.926 0.875-58.449-9.4492-13.824-19.25-32.551-54.949-0.875-77.875zm-26.773 269.85-30.453-93.977c-12.074-37.449 23.977-54.949 46.551-62.301 12.25-4.0234 32.551 6.3008 52.5 26.426-0.26562 4.4297-0.26562 8.8711 0 13.301-0.097657 32.305 11.816 63.488 33.426 87.5-4.5508 28.352-14.875 48.824-27.125 52.5-23.102 7-62.648 13.824-74.898-23.449zm248.5 108.68h-98.703c-39.199 0-44.977-39.727-44.977-63.523 0-12.773 16.102-28.875 41.477-41.824v-0.003906c33.453 14.719 71.547 14.719 105 0 25.375 12.949 41.477 29.051 41.477 41.824 0.69922 23.801-5.0742 63.527-44.273 63.527zm180.25-202.65-30.449 93.977c-12.25 37.273-52.5 30.449-74.375 23.102-12.25-3.8516-22.574-24.324-27.125-52.5l-0.003906-0.007812c21.613-24.008 33.523-55.195 33.426-87.5 0.26562-4.4297 0.26562-8.8672 0-13.297 20.125-20.125 40.426-30.449 52.5-26.426 22.051 7.6992 58.102 25.199 46.027 62.648z"/>
 </g>
</svg>
